<svg xmlns="http://www.w3.org/2000/svg" version="1.0" width="612.000000pt" height="612.000000pt" viewBox="0 0 612.000000 612.000000" preserveAspectRatio="xMidYMid meet">
<metadata>
Created by potrace 1.16, written by Peter Selinger 2001-2019
</metadata>
<g transform="translate(0.000000,612.000000) scale(0.100000,-0.100000)" fill="#000000" stroke="none">
<path d="M2798 4993 c-24 -26 -42 -77 -29 -81 43 -14 -46 -59 -300 -152 -218 -79 -469 -172 -544 -201 -27 -10 -65 -22 -82 -25 -23 -5 -33 -12 -33 -25 0 -10 -4 -21 -10 -24 -18 -11 -10 -25 14 -25 21 0 24 -6 30 -52 3 -29 6 -350 6 -713 0 -363 4 -677 9 -698 10 -42 10 -41 -49 -51 -19 -4 -40 -10 -46 -14 -8 -5 -14 -241 -19 -852 -4 -465 -9 -849 -12 -854 -3 -4 -41 -6 -84 -4 l-79 5 0 -54 c0 -31 4 -53 11 -53 6 0 9 14 7 33 l-3 32 1467 3 c1395 2 1467 1 1471 -15 3 -10 5 -1 6 20 l1 38 -63 -7 -64 -6 -6 45 c-4 25 -9 133 -12 239 -3 106 -8 225 -10 263 -2 39 -4 323 -5 633 l0 562 -34 0 -34 0 -5 63 c-3 34 -11 273 -18 530 -10 350 -10 473 -2 487 8 12 10 61 6 157 -3 76 -2 174 1 216 7 74 9 77 33 77 16 0 23 4 19 13 -3 6 -9 20 -12 30 -4 9 -15 17 -25 17 -11 0 -19 3 -19 8 0 9 -119 47 -126 40 -5 -5 6 -10 99 -43 26 -9 47 -23 47 -31 0 -19 -16 -18 -92 6 -85 27 -121 26 -155 -4 l-28 -25 56 1 c77 0 99 -8 99 -38 0 -13 -5 -24 -11 -24 -6 0 -9 6 -6 13 3 8 1 20 -4 28 -6 10 -9 8 -9 -11 -1 -22 -2 -23 -11 -7 -14 24 -31 21 -27 -5 3 -21 -2 -23 -62 -29 -36 -3 -63 -7 -60 -8 3 -1 57 -4 120 -7 63 -4 119 -10 125 -16 15 -14 -15 -28 -62 -28 -26 0 -43 -5 -43 -11 0 -8 17 -10 55 -6 53 5 55 5 55 -18 0 -19 -10 -27 -52 -44 l-53 -20 53 0 c38 -1 54 -5 59 -17 9 -23 -10 -36 -61 -41 -58 -7 -60 -23 -3 -23 50 0 72 -12 64 -34 -5 -11 -19 -16 -52 -16 -25 0 -45 -4 -45 -10 0 -5 17 -10 38 -10 46 0 65 -12 60 -36 -2 -14 -15 -21 -48 -25 l-45 -6 52 -1 c51 -2 51 -2 44 -29 -6 -23 -16 -30 -57 -40 l-49 -11 48 -1 c43 -1 47 -3 47 -26 0 -23 -4 -25 -42 -25 -69 0 -78 -16 -14 -24 37 -5 56 -12 56 -21 0 -14 -9 -18 -75 -31 l-40 -8 55 -6 c42 -4 56 -9 58 -22 3 -15 -4 -18 -48 -18 -32 0 -49 -4 -45 -10 3 -5 26 -10 51 -10 36 0 44 -3 44 -19 0 -23 -19 -31 -72 -31 -56 0 -39 -13 24 -20 53 -5 64 -14 49 -39 -6 -10 -26 -14 -61 -12 -33 1 -49 -2 -45 -9 3 -5 28 -10 55 -10 27 0 51 -4 54 -8 7 -12 -7 -30 -34 -41 -23 -9 -22 -10 13 -10 26 -1 37 -5 37 -16 0 -18 -39 -35 -80 -35 -16 0 -32 -4 -35 -10 -4 -6 15 -10 49 -10 31 0 56 -3 56 -7 -1 -21 -20 -32 -70 -39 l-55 -8 65 -9 c35 -4 66 -10 68 -12 11 -11 -12 -45 -31 -45 -12 0 -33 -4 -47 -8 -21 -6 -19 -8 20 -12 34 -4 46 -10 48 -24 2 -10 -1 -22 -8 -26 -9 -5 -9 -13 -2 -27 16 -30 -3 -43 -68 -45 l-55 -1 68 -10 c38 -6 67 -15 67 -22 0 -23 -25 -35 -75 -36 l-50 -2 63 -10 c34 -5 62 -14 62 -19 0 -13 -46 -28 -88 -29 -33 -1 -34 -2 -12 -9 14 -4 44 -8 68 -9 29 -1 42 -5 42 -15 0 -23 -18 -29 -84 -28 -45 0 -54 -2 -36 -8 14 -4 42 -8 63 -9 69 -2 59 -51 -10 -51 -18 0 -33 -4 -33 -10 0 -5 22 -10 50 -10 49 0 50 0 38 -25 -9 -19 -19 -25 -44 -25 -18 0 -36 -4 -39 -10 -4 -6 10 -10 33 -10 59 0 65 -32 12 -57 l-25 -12 26 0 c53 -2 46 -37 -9 -48 l-37 -7 35 -6 c47 -7 51 -34 8 -50 l-33 -13 35 -6 c32 -5 36 -11 32 -41 -1 -5 -14 -10 -28 -10 -14 0 -23 -4 -19 -10 3 -5 17 -10 31 -10 17 0 24 -5 24 -20 0 -15 -7 -20 -29 -20 -17 0 -33 -4 -36 -10 -4 -6 7 -10 25 -10 45 0 33 -24 -16 -31 -21 -3 -29 -7 -16 -8 31 -1 64 -20 57 -32 -4 -5 -53 -9 -109 -9 -80 0 -106 -3 -116 -15 -7 -9 -8 -15 -2 -15 5 0 8 -9 5 -19 -4 -16 -1 -19 19 -14 l23 6 -22 -22 c-12 -11 -27 -21 -32 -21 -7 0 -9 101 -8 287 1 184 -2 287 -8 290 -7 2 -10 -181 -10 -535 0 -686 -7 -1202 -16 -1202 -4 0 -10 135 -14 300 -4 166 -11 297 -16 294 -10 -6 -11 13 -9 260 1 103 6 188 12 199 7 14 7 22 -2 27 -9 5 -10 78 -4 293 4 158 11 284 15 281 5 -3 9 19 9 49 l0 54 -52 7 c-89 10 -568 7 -568 -4 0 -5 16 -10 35 -10 30 0 35 -3 35 -25 0 -20 -6 -25 -37 -30 -59 -10 -62 -13 -10 -14 46 -1 47 -2 47 -32 0 -28 -2 -30 -27 -25 -16 3 -35 2 -43 -4 -11 -7 -4 -11 27 -16 40 -6 66 -31 40 -38 -6 -2 -28 -8 -47 -14 l-35 -10 30 -1 c17 -1 40 -4 53 -7 20 -6 22 -3 22 33 0 22 3 61 6 87 5 37 11 46 26 46 19 0 19 -17 17 -850 -3 -791 -4 -850 -20 -850 -11 0 -19 12 -24 37 -4 21 -7 329 -7 686 0 564 -2 647 -15 643 -8 -3 -30 -6 -49 -6 -19 0 -34 -4 -34 -10 0 -5 18 -10 40 -10 56 0 53 -24 -6 -39 -25 -6 -50 -8 -56 -5 -7 4 -8 3 -4 -4 4 -7 29 -12 56 -12 54 0 68 -11 43 -31 -11 -10 -55 -15 -145 -18 -91 -2 -128 -6 -125 -15 2 -6 18 -10 35 -8 l32 4 1 -54 2 -53 6 52 c4 28 10 55 13 59 24 23 19 -85 -14 -301 -8 -50 -13 -64 -18 -50 -5 14 -10 -3 -15 -53 -9 -83 -25 -106 -25 -35 0 40 -17 95 -21 71 -5 -25 -4 -36 3 -68 4 -23 3 -37 -5 -42 -9 -6 -9 -8 1 -8 8 0 12 -19 12 -59 0 -65 -16 -92 -23 -39 -3 29 -4 28 -5 -9 -1 -23 -6 -44 -10 -47 -11 -7 -26 582 -16 609 4 11 12 23 18 27 21 14 -4 17 -168 21 -133 3 -170 7 -182 19 -14 14 -11 16 31 22 26 4 93 7 148 6 155 -3 187 -1 187 10 0 6 -70 10 -190 10 -154 0 -190 3 -190 14 0 15 95 25 263 27 171 3 139 14 -55 19 -108 3 -200 9 -204 13 -20 20 33 27 206 28 102 1 199 5 215 9 l30 8 -30 1 c-16 1 -119 1 -227 1 l-198 -1 0 26 c0 24 2 25 78 27 42 0 88 0 102 -1 14 -2 59 0 100 4 63 6 71 9 50 17 -14 5 -78 7 -150 3 -121 -7 -189 2 -176 23 5 9 261 24 399 24 37 0 67 4 67 9 0 5 -102 9 -235 9 -194 0 -235 2 -235 14 0 21 23 26 138 27 197 1 225 14 49 21 -166 7 -185 11 -167 33 8 9 54 13 173 14 187 2 265 14 157 24 -36 4 -125 8 -198 10 -103 2 -135 6 -142 17 -20 32 -3 35 156 32 87 -1 173 2 189 6 36 10 -241 21 -570 23 -170 1 -208 3 -165 11 30 5 74 7 98 5 42 -4 47 7 7 15 -11 3 150 2 358 0 280 -4 377 -2 377 7 0 8 -117 11 -442 12 -244 1 -432 5 -418 9 14 4 49 8 78 9 28 1 52 6 52 11 0 6 -8 10 -17 11 -15 0 -14 2 3 9 12 5 89 5 175 0 176 -11 440 -11 484 -1 37 9 -247 21 -477 21 -140 0 -170 3 -174 15 -4 8 -9 13 -13 11 -3 -3 -31 -1 -61 3 l-55 7 50 11 c37 9 124 9 336 1 238 -9 470 -5 457 7 -10 9 -167 14 -508 16 -212 0 -374 5 -360 9 14 4 61 9 105 11 l80 2 -60 6 c-138 14 27 18 337 8 308 -9 375 -7 363 13 -4 6 -148 10 -378 10 -228 0 -367 4 -362 9 6 5 26 11 45 14 19 2 -10 5 -65 6 -55 1 -107 6 -115 11 -10 7 127 10 423 9 241 -1 440 0 442 3 7 7 -316 18 -579 20 -136 1 -198 4 -161 8 45 5 51 7 25 9 -19 2 -46 7 -60 11 -33 11 16 12 455 12 215 0 327 3 290 8 -33 4 -226 9 -430 10 -386 2 -491 10 -330 25 68 7 83 10 60 16 -28 6 -29 7 -5 9 14 2 198 2 410 1 242 0 378 3 365 8 -11 5 -164 11 -340 12 -298 2 -632 13 -502 17 31 1 57 6 57 11 0 18 74 22 430 23 256 1 331 3 250 8 -63 4 -272 8 -465 9 -230 1 -345 5 -335 11 8 5 47 10 85 11 43 0 63 3 51 8 -18 7 -18 8 5 14 13 4 39 7 57 7 17 0 32 4 32 8 0 5 -53 10 -117 11 -135 2 -167 11 -42 12 72 0 81 2 59 12 -20 10 57 13 380 17 223 3 396 8 386 13 -10 4 -203 7 -428 7 -226 -1 -412 1 -416 4 -3 3 26 6 64 7 46 1 61 3 44 8 -55 16 48 24 285 20 132 -1 290 -1 350 1 l110 3 -105 7 c-58 4 -233 9 -390 11 -172 1 -257 5 -215 9 68 6 67 7 -40 9 -60 2 -123 6 -140 10 -75 16 34 22 440 22 236 0 439 4 450 9 12 5 -164 10 -425 11 -245 2 -407 6 -360 9 66 5 73 7 33 8 -29 1 -53 7 -53 12 0 6 137 10 391 10 293 0 388 3 383 12 -5 8 -106 9 -398 4 -376 -6 -532 -1 -461 15 17 4 68 8 115 9 74 3 79 4 40 10 l-45 7 40 3 c22 2 51 3 65 2 78 -4 567 1 630 7 l75 7 -69 8 c-37 5 -219 5 -403 1 -245 -5 -334 -4 -329 4 4 6 26 12 49 12 23 1 -12 7 -78 13 l-120 11 65 9 c36 4 236 7 445 7 208 -1 376 2 371 6 -4 4 -76 8 -159 8 -273 0 -725 9 -617 12 139 5 157 23 24 24 l-99 1 97 13 c54 7 217 12 370 13 317 1 347 3 218 12 -52 4 -234 6 -405 3 -221 -3 -306 -2 -295 6 8 6 56 12 105 13 89 1 90 1 25 7 -142 13 -5 21 370 22 212 0 373 4 359 9 -14 4 -202 7 -417 6 -215 -1 -399 2 -409 6 -10 3 32 8 92 9 61 1 88 4 60 6 -27 1 -70 6 -95 10 l-45 7 55 6 c30 4 162 5 293 2 249 -5 497 6 442 19 -16 3 -183 4 -369 1 -257 -4 -337 -2 -332 6 4 7 34 13 69 14 45 1 27 4 -68 12 l-130 11 69 14 c52 10 121 13 270 8 253 -7 535 2 510 16 -12 7 -129 8 -333 4 -299 -7 -400 0 -299 18 53 10 42 12 -96 21 -81 4 -105 9 -92 16 17 10 164 14 619 18 129 1 197 5 197 12 0 7 -108 8 -350 3 -257 -6 -350 -5 -350 4 0 7 -23 11 -65 11 -37 0 -65 4 -65 10 0 6 109 10 308 10 169 1 341 3 382 5 41 3 269 7 505 9 238 3 443 9 460 15 26 8 21 9 -37 10 -61 1 -68 3 -68 21 0 11 -4 20 -9 20 -4 0 -6 -11 -3 -25 6 -35 -25 -34 -34 2 -9 35 17 54 73 50 24 -1 43 -5 43 -9 0 -3 9 -4 20 -1 23 6 24 8 9 34 -10 20 -9 20 31 -1 23 -12 43 -20 44 -18 1 2 10 19 19 38 9 19 17 29 17 23 0 -15 40 -18 40 -3 0 12 -45 24 -58 16 -5 -3 -15 1 -22 9 -7 8 -20 15 -29 15 -13 -1 -11 -5 7 -19 12 -11 22 -27 22 -36 0 -12 -5 -15 -22 -10 -56 17 -158 60 -206 87 -33 19 -62 28 -77 26 -13 -3 -30 -1 -37 3 -9 6 -8 9 7 9 19 1 19 1 2 11 -9 6 -27 7 -40 4 -14 -4 -18 -3 -9 3 9 6 -24 27 -110 69 -68 34 -134 73 -148 88 l-25 27 25 -7 c14 -4 81 -34 149 -67 68 -32 162 -74 210 -94 47 -20 109 -46 137 -60 28 -13 60 -24 70 -23 14 0 11 4 -11 15 -86 40 -267 124 -270 124 -1 0 -24 9 -50 21 -78 35 -44 32 63 -6 56 -19 105 -35 109 -34 15 1 -176 74 -362 139 -33 11 -51 23 -53 36 -2 10 -10 35 -18 55 -14 33 -21 37 -61 43 -59 8 -267 8 -315 0 -72 -12 -37 -24 71 -24 104 0 109 -1 116 -22 l8 -23 4 23 c5 26 29 29 61 6 12 -8 22 -10 22 -5 0 17 32 13 46 -6 21 -28 16 -35 -20 -31 -20 2 -32 0 -29 -6 6 -8 -346 -1 -354 8 -2 2 -20 0 -39 -4 -19 -4 -36 -5 -38 -1 -7 13 31 66 50 69 16 3 16 1 4 -7 -13 -9 -13 -11 1 -11 9 0 22 7 29 15 10 12 9 15 -6 15 -11 0 -28 3 -39 6 -13 3 -27 -2 -37 -13z m372 -131 c0 -10 6 -24 12 -30 10 -10 10 -15 -2 -22 -12 -8 -11 -10 7 -10 12 0 25 -5 28 -10 4 -6 3 -10 -2 -9 -19 3 -25 -2 -15 -13 5 -7 27 -46 47 -86 21 -40 40 -71 42 -68 2 2 -12 36 -32 76 -22 44 -34 79 -30 91 9 27 19 24 52 -14 16 -19 56 -53 89 -76 l59 -43 -52 51 c-29 28 -53 56 -53 61 0 13 7 9 73 -38 26 -19 50 -33 52 -30 8 7 -119 108 -136 108 -9 0 -22 6 -28 14 -13 15 -51 18 -51 4 0 -13 -27 -9 -28 5 -1 6 -5 27 -8 46 -6 32 -5 34 17 28 13 -4 30 -7 37 -7 6 0 12 -8 12 -18 0 -11 8 -18 21 -19 27 -2 51 -22 42 -36 -3 -5 -2 -7 4 -4 6 4 48 -24 94 -61 203 -162 269 -212 269 -202 0 5 5 10 10 10 6 0 10 -8 10 -18 0 -10 5 -23 12 -30 9 -9 8 -12 -5 -12 -9 0 -17 6 -17 13 0 8 -3 7 -10 -3 -7 -12 -41 -16 -180 -18 -166 -3 -170 -3 -170 17 0 12 -4 21 -10 21 -11 0 -13 -11 -4 -34 5 -12 20 -16 60 -16 53 0 54 -1 54 -29 l0 -28 -158 -5 c-87 -4 -179 -4 -205 -1 -41 5 -47 9 -47 28 0 30 21 35 149 35 57 0 102 2 100 5 -3 2 -103 5 -222 5 -121 1 -219 5 -222 11 -4 5 27 72 67 149 l73 140 78 0 c44 0 77 4 77 10 0 10 -27 15 -62 12 -10 -1 -18 4 -18 10 0 9 -3 9 -12 0 -24 -24 -39 -14 -36 26 l3 37 60 3 c32 2 61 5 63 7 10 9 42 -17 42 -33z m-375 -31 c-3 -5 -27 -18 -53 -27 -26 -10 -56 -26 -66 -36 -11 -10 -28 -20 -38 -24 -10 -3 -18 -10 -18 -15 0 -14 15 -11 41 10 31 24 90 54 95 48 5 -4 -68 -57 -78 -57 -3 0 -94 -43 -202 -95 -107 -52 -200 -95 -205 -95 -5 0 -23 -13 -40 -29 -25 -23 -33 -26 -42 -15 -6 8 -8 21 -4 31 5 10 7 23 6 30 -1 9 115 73 133 73 10 0 296 130 371 168 79 40 112 51 100 33z m40 -98 l-18 -28 27 24 c41 38 34 3 -19 -88 -26 -46 -45 -91 -45 -108 0 -19 -6 -33 -16 -37 -26 -10 -214 -7 -214 3 0 6 24 30 53 55 199 170 242 206 246 206 2 0 -5 -12 -14 -27z m-505 -50 c0 -5 -21 -15 -47 -23 -25 -8 -48 -21 -50 -27 -3 -9 6 -8 32 3 21 8 39 13 41 11 5 -5 -200 -97 -215 -97 -7 0 -44 -13 -83 -30 -76 -32 -138 -40 -138 -16 0 8 21 22 48 32 26 9 85 31 132 49 47 18 104 36 127 40 24 4 46 11 49 17 6 9 80 46 97 47 4 1 7 -2 7 -6z m320 -220 c0 -5 3 -18 6 -30 l6 -23 -151 0 -151 0 0 23 c0 13 3 27 7 30 9 10 283 9 283 0z m1250 -1518 l0 -25 -142 1 c-170 0 -221 8 -226 32 -3 16 11 17 182 17 l186 0 0 -25z m-1197 -37 c9 -10 11 -218 9 -850 -2 -809 -3 -838 -21 -838 -15 0 -20 10 -25 52 -13 99 -4 1521 10 1616 5 35 10 38 27 20z m1643 -97 c2 -60 0 -102 -6 -106 -6 -3 -10 -18 -9 -33 0 -24 1 -25 9 -7 5 12 9 -130 9 -340 1 -435 10 -1040 16 -1078 3 -18 0 -27 -9 -27 -11 0 -16 20 -20 73 -2 39 -5 77 -5 82 -1 6 0 31 2 58 2 26 0 47 -3 47 -4 0 -7 39 -9 87 -3 113 -11 121 -11 12 0 -46 -5 -91 -10 -99 -9 -13 -10 -13 -11 0 -10 127 -32 1387 -25 1406 6 16 8 16 16 4 8 -13 10 -12 10 3 0 9 6 17 14 17 8 0 17 -8 19 -17 3 -13 5 -11 6 6 3 58 13 5 17 -88z m-2524 6 l2 -82 6 75 c6 74 11 62 14 -34 1 -31 -3 -54 -13 -63 -9 -9 -10 -17 -4 -21 5 -4 13 -16 17 -27 12 -33 9 -1426 -3 -1438 -8 -8 -11 2 -12 34 -3 77 -5 98 -11 105 -4 3 -6 -18 -4 -48 2 -35 -2 -62 -11 -74 -10 -13 -13 -14 -14 -3 0 8 -3 28 -5 44 -3 17 -4 39 -3 50 2 11 3 79 2 150 -5 618 -6 769 -5 832 1 39 -3 84 -8 99 -8 19 -8 29 0 34 7 5 12 78 14 216 2 115 7 217 11 226 14 35 25 5 27 -75z m312 54 c-1 -17 2 -28 7 -25 5 3 9 16 9 30 0 14 4 22 10 19 12 -7 12 -1537 0 -1575 -7 -21 -8 -19 -9 18 -1 23 -5 42 -10 42 -16 0 -18 -48 -4 -81 7 -18 10 -35 5 -38 -5 -3 -13 -14 -19 -25 -24 -44 -32 70 -32 455 0 451 7 1024 14 1124 2 39 4 76 5 83 0 8 6 12 13 9 6 -2 11 -18 11 -36z m420 23 c40 -6 47 -10 44 -28 -2 -17 -11 -22 -48 -25 l-45 -4 50 -12 c63 -14 73 -39 18 -49 -57 -9 -156 -7 -173 4 -11 7 -1 10 35 11 44 1 46 2 20 9 -16 4 -64 9 -105 10 l-75 3 99 8 c54 4 101 11 104 14 3 3 -42 5 -99 6 -57 0 -113 4 -124 9 -13 5 26 9 105 9 85 1 120 4 110 11 -8 5 -33 10 -55 11 -35 1 -37 2 -15 9 32 10 95 12 154 4z m1346 -19 l0 -25 -162 0 c-174 0 -208 4 -208 26 0 10 27 14 118 17 64 1 147 4 185 5 65 2 67 1 67 -23z m-2 -72 l3 -23 -185 0 c-102 0 -187 4 -190 8 -18 29 59 39 289 38 75 -1 80 -2 83 -23z m6 -58 c3 -9 0 -17 -7 -20 -18 -5 -340 -13 -354 -8 -19 7 -16 31 5 36 9 3 92 5 183 6 142 1 168 -1 173 -14z m-1286 -72 c4 -29 -19 -35 -133 -31 -78 3 -87 5 -65 15 23 11 22 12 -20 12 -25 1 -70 5 -100 9 l-55 7 55 6 c30 3 114 6 185 5 126 -1 130 -2 133 -23z m1170 19 c105 -2 112 -3 112 -22 0 -19 -7 -20 -185 -20 -176 0 -185 1 -185 19 0 21 25 27 105 25 22 0 91 -1 153 -2z m81 -68 c21 -5 31 -12 31 -25 0 -18 -10 -19 -159 -19 -153 0 -211 8 -211 29 0 6 42 12 98 14 53 1 122 4 153 5 31 1 71 -1 88 -4z m381 -286 c0 -115 9 -865 11 -898 0 -8 -2 -57 -6 -108 -6 -89 -6 -92 16 -100 15 -6 -27 -11 -121 -16 -111 -5 -145 -4 -152 6 -9 15 -11 1070 -2 1117 4 17 11 31 17 31 5 0 7 -13 3 -31 -5 -29 -5 -30 12 -18 9 8 19 16 22 19 37 37 169 120 191 120 5 0 9 -55 9 -122z m-2315 81 c17 -5 50 -25 74 -44 24 -19 47 -32 52 -29 5 3 9 -238 9 -560 l0 -566 -84 0 -84 0 -6 73 c-9 116 -26 745 -26 956 0 180 1 193 18 186 9 -4 31 -11 47 -16z m895 -17 c1 -9 8 -30 16 -47 8 -16 12 -22 10 -13 -3 9 -8 33 -12 52 -5 32 -4 36 15 36 16 0 24 -11 36 -47 l15 -48 -5 48 c-4 45 -3 47 20 47 18 0 25 -5 25 -20 0 -11 5 -20 10 -20 6 0 10 9 10 21 0 14 5 19 18 17 14 -3 19 -23 30 -133 26 -273 37 -464 28 -499 -4 -15 -13 -26 -24 -26 -27 0 -272 335 -272 372 0 9 -4 20 -10 23 -5 3 -10 14 -10 23 0 13 5 12 20 -8 25 -32 25 -20 -1 39 -11 27 -19 64 -17 82 l3 33 28 -55 c15 -29 25 -43 21 -29 -4 14 -17 46 -30 72 -31 61 -32 108 -4 108 11 0 23 -8 26 -17 16 -50 24 -57 19 -15 -5 41 -4 42 15 32 11 -6 20 -18 20 -28z m1061 11 c9 -64 6 -79 -24 -112 l-32 -34 30 19 c28 18 29 18 16 0 -15 -18 -95 -76 -106 -76 -3 0 -3 6 1 13 4 7 3 9 -2 4 -5 -5 -9 -13 -9 -19 0 -6 -11 -18 -25 -27 -24 -15 -24 -15 -10 3 14 18 14 18 -7 6 -11 -8 -19 -20 -16 -27 4 -11 -9 -18 -21 -10 -2 1 -14 -10 -26 -25 -12 -16 -28 -28 -36 -28 -8 0 -13 -4 -9 -9 3 -6 -4 -15 -16 -21 -17 -9 -20 -9 -14 0 4 7 -4 4 -18 -5 -41 -26 -54 -12 -14 15 19 14 102 79 184 144 81 66 150 121 152 123 2 2 1 6 -2 10 -4 3 -20 -5 -35 -19 -46 -43 -179 -139 -188 -136 -5 2 -29 -16 -53 -40 -24 -23 -47 -39 -50 -36 -3 4 0 9 7 11 6 3 12 10 12 16 0 7 36 42 80 80 81 68 103 78 53 23 -20 -22 -14 -18 23 12 66 54 92 84 49 57 l-30 -19 19 22 c11 13 26 20 36 17 10 -3 27 7 46 27 l29 32 -27 -17 c-33 -21 -38 -6 -5 16 25 18 36 21 38 10z m-1519 -281 c84 -55 173 -112 197 -128 l44 -29 -7 -209 c-3 -115 -6 -285 -6 -378 l0 -168 -190 0 -189 0 -10 38 c-19 68 -40 949 -24 975 8 13 19 6 185 -101z m1528 -100 c0 -98 -3 -321 -7 -495 l-6 -317 -179 0 -178 0 0 364 0 365 116 88 c146 111 234 173 245 173 5 0 9 -80 9 -178z m-1092 -189 c18 -14 52 -35 75 -49 l42 -24 -41 0 c-43 0 -53 -12 -54 -64 0 -18 9 -19 256 -12 141 4 263 10 270 13 25 9 14 73 -12 73 -8 0 -14 4 -14 9 0 9 52 51 64 51 3 0 6 -139 6 -309 l0 -308 -191 -5 c-105 -3 -253 -3 -329 0 l-138 5 -6 186 c-10 278 -11 309 -8 399 2 82 2 83 25 71 12 -6 37 -23 55 -36z"/>
</g>
</svg>